<svg xmlns="http://www.w3.org/2000/svg" viewBox="-0.000463843 0.000147879 332.5 333.2">
	<path d="M 151.022 201.624 c -3.7 1.6 -7.7 2.5 -11.9 2.5 c -9.6 0.1 -17.3 -3.1 -22.8 -9.4 c -5.6 -6.3 -8.5 -15.7 -8.6 -27.9 c -0.1 -5.2 0.6 -10.2 2.1 -14.6 c 1.4 -4.5 3.5 -8.4 6.2 -11.6 c 2.7 -3.2 5.9 -5.8 9.7 -7.6 c 3.7 -1.8 7.9 -2.8 12.5 -2.8 c 4.4 -0.1 8.6 0.8 12.4 2.5 c 3.8 1.7 7.1 4.2 9.9 7.4 c 2.8 3.2 4.9 7 6.5 11.5 c 1.5 4.4 2.3 9.4 2.4 14.8 c 0.1 6 -0.7 11.4 -2.2 16 c -1.6 4.6 -3.8 8.6 -6.5 11.8 c -2.7 3.3 -6 5.7 -9.7 7.4 Z m -27.3 -23.1 c 0.6 3.4 1.5 6.5 2.8 9 c 1.2 2.4 2.9 4.4 4.9 5.8 c 1.9 1.4 4.5 2.1 7.6 2.1 c 2.4 0 4.5 -0.7 6.3 -2.2 c 1.9 -1.6 3.6 -3.7 4.9 -6.2 c 1.4 -2.6 2.4 -5.7 3.1 -9.1 c 0.7 -3.5 1 -7.1 1 -10.9 c 0 -3.7 -0.4 -7.4 -1 -10.9 c -0.6 -3.4 -1.6 -6.5 -2.9 -9.1 c -1.3 -2.5 -2.9 -4.5 -4.9 -6 c -1.9 -1.4 -4.3 -2.1 -7.2 -2.1 c -2.7 0 -5 0.8 -6.9 2.3 c -2 1.6 -3.6 3.7 -4.9 6.3 c -1.3 2.7 -2.3 5.8 -2.9 9.2 c -0.7 3.5 -0.9 7.1 -0.9 10.7 c 0.1 3.8 0.4 7.6 1 11.1 Z m -83.1 -105.5 c 2.5 3.5 -2.5 6.1 -6.9 4.8 c -3.7 -1.1 -4.3 -4.9 -3.7 -6.7 c 0.894 -3.16 3.53 -5.396 6.975 -8.318 c 2.334 -1.979 5.039 -4.273 7.825 -7.382 a 336.524 336.524 0 0 0 6.253 -7.079 c 1.434 -1.658 2.867 -3.316 4.847 -5.521 c 4.4 -4.9 12.5 -4.9 15.3 -4.4 c 1.1 0.1 2.3 0.5 3.4 1 c 1.8 0.8 3.5 2 5.2 3.5 c 1.7 1.5 3 3.2 3.9 4.8 c 0.9 1.7 1.5 3.3 1.7 5 c 0 0.3 0.025 0.625 0.05 0.95 c 0.025 0.325 0.05 0.65 0.05 0.95 v 0.8 c 0.1 2 1.1 2.8 4.4 2.2 h 0.1 c 1.6 -0.4 3.2 -0.5 4.7 -0.5 c 2.1 0.1 4.3 0.6 6.4 1.5 h 0.1 c 2.1 0.9 4.1 2.3 6.2 4.2 c 2.8 2.5 4.7 5.1 5.8 7.7 c 1.1 2.6 2 6.6 0.6 10.8 c -2.1 6.3 -6.6 10.7 -14 16.8 c -5.5 4.5 -9.7 12.1 -9.7 12.1 c -1.6 2.3 -5.2 6.1 -8.2 3.9 c -2.117 -1.636 -1.086 -3.642 0.777 -7.266 l 0.223 -0.434 c 2.1 -4.1 -0.3 -7.3 -1.4 -8.3 c 0 0 -24.2 -22 -30.9 -27.9 c -6.7 -5.9 -12.1 -0.1 -10 2.8 Z m 42.3 -2.7 l -1.5 1.2 c -3 2.8 -4.1 4.5 -0.3 7.9 l 4.1 3.7 c 1.472 1.39 2.81 2.513 3.96 3.478 l 0.74 0.622 c 2.1 1.6 5.1 3.2 7.7 1.4 c 0.197 -0.263 0.437 -0.483 0.692 -0.716 c 0.133 -0.121 0.27 -0.247 0.408 -0.384 l 1.1 -1.1 l 0.2 -0.2 c 1.9 -2.1 2.6 -4 2.2 -6 c -0.5 -2.1 -2.2 -4.5 -5.1 -7.1 c -2.1 -1.9 -4.1 -3.2 -5.8 -3.8 c -1.6 -0.6 -3.1 -0.8 -4.4 -0.6 c -1.4 0.2 -2.7 0.7 -4 1.6 Z m -25.9 -17.1 l -0.1 0.2 c -1.3 1.9 0 4.1 1.6 5.5 l 9.3 8.4 c 1.3 1.2 3 1.9 4.5 0.7 c 0.4 -0.6 0.8 -1.1 1.2 -1.6 c 0.079 -0.119 0.142 -0.237 0.202 -0.349 c 0.092 -0.172 0.177 -0.33 0.298 -0.451 c 0.06 -0.09 0.12 -0.17 0.176 -0.247 c 0.134 -0.181 0.254 -0.343 0.324 -0.553 c 0.6 -1.1 1 -2.3 1 -3.5 c 0 -1.2 -0.2 -2.4 -0.9 -3.7 c -0.7 -1.3 -1.9 -2.8 -3.7 -4.4 c -1.6 -1.4 -3 -2.4 -4.4 -3 c -1.1 -0.5 -2.1 -0.8 -3 -0.7 c -1.6 0.1 -3.2 0.8 -4.8 2.1 c -0.2 0.2 -0.5 0.5 -1 0.9 c -0.205 0.136 -0.363 0.32 -0.507 0.486 c -0.067 0.077 -0.13 0.15 -0.193 0.214 Z m 61.8 195.5 c 3.8 2.2 7.9 3.8 12.2 5.4 c 3.5 1.3 3 3.7 2.6 4.9 c -0.5 1.1 -1.8 3.3 -6.1 2.2 c -4.3 -1.1 -6.9 -0.7 -10.5 5.1 c -2.459 3.961 -8.975 15.058 -14.07 23.735 c -2.366 4.028 -4.425 7.536 -5.63 9.565 c -3.47 5.782 -1.162 7.687 0.798 9.304 c 0.243 0.201 0.481 0.397 0.702 0.596 c 2 1.8 3 3.9 1.6 5.8 c -1.4 2 -4.6 1.5 -5.5 1 c -1.015 -0.609 -3.292 -2.222 -5.51 -3.794 c -2.154 -1.526 -4.253 -3.014 -5.09 -3.506 c -0.736 -0.409 -2.543 -1.32 -4.53 -2.322 c -2.873 -1.448 -6.124 -3.087 -7.07 -3.678 c -1 -0.6 -3.3 -3.3 -1.8 -5.7 c 1.5 -2.4 4.3 -1.7 5.3 -1.3 c 1.5 0.7 6.2 2.4 9.7 -3.5 c 3.5 -5.8 16.6 -28 19.7 -33.3 c 3.2 -5.3 2.7 -8.2 -0.4 -11.9 c -3.1 -3.8 -5.2 -5.1 -9.8 -2.2 c -3.03 1.869 -14.492 9.596 -24 16.004 c -5.242 3.534 -9.89 6.667 -12.2 8.196 c -6.444 4.263 -3.748 8.427 -2.629 10.155 l 0.029 0.045 c 1.2 1.8 1.6 3.5 0.2 5 c -1.4 1.5 -4.7 1.3 -6.4 -1.3 c -0.787 -1.21 -3.331 -4.252 -5.683 -7.063 c -1.535 -1.834 -2.988 -3.571 -3.817 -4.637 c -1.081 -1.391 -3.064 -3.47 -4.897 -5.393 c -1.727 -1.811 -3.321 -3.483 -3.903 -4.307 c -1 -1.4 -2 -4.3 0.5 -5.8 c 2.5 -1.4 5.4 0.1 6.1 0.9 c 2.5 2.5 4.8 4.8 9.1 2.2 c 4.3 -2.6 7.7 -4.8 7.7 -4.8 c 4.6 -3 6.4 -7.2 3.2 -12 l -6.6 -10 c -2.6 -4 -5.8 -5.1 -8.8 -3.3 c -1.906 1.134 -3.441 1.877 -4.998 2.631 c -1.874 0.908 -3.78 1.83 -6.402 3.469 c -4.323 2.702 -3.536 5.89 -2.972 8.177 c 0.063 0.253 0.122 0.494 0.172 0.723 c 0.3 1.9 0.4 3.5 -2 4.5 c -2.5 1 -4.5 -1 -5.1 -1.9 c -0.655 -1.108 -1.385 -2.951 -2.23 -5.082 c -0.833 -2.102 -1.778 -4.484 -2.87 -6.718 c -2.2 -4.5 -5.4 -10.8 -6.5 -12.5 c -1.1 -1.8 -0.6 -4.7 1.4 -5.2 s 3.4 -0.2 5.6 3.1 c 2.8 4.1 5.5 3.4 10.2 0.8 c 1.21 -0.67 3.727 -2.023 6.928 -3.742 c 9.225 -4.959 24.13 -12.969 29.772 -16.458 c 4 -2.5 4.5 -5.8 3.6 -8.3 c -0.8 -2.5 0.3 -5.5 3.1 -5.7 c 2.8 -0.2 3.9 1.9 4.1 2.9 c 0.038 0.276 0.074 0.572 0.112 0.887 c 0.268 2.191 0.652 5.329 2.488 9.613 c 2.1 4.9 6.1 11.1 6.1 11.1 s 1.7 2.7 -0.6 4.3 c -2.2 1.6 -5.3 -0.6 -5.8 -1.3 c -1 -1.2 -3.6 -2.8 -7.9 -0.5 c -1.325 0.717 -2.954 1.8 -4.601 2.895 c -1.339 0.89 -2.69 1.788 -3.9 2.505 c -3.4 2.1 -4.7 3.7 -1.5 8.5 l 6.8 10.3 c 3.4 5.1 6.4 4.6 9.2 2.8 c 2.8 -1.7 5.9 -3.8 9.5 -6.5 c 3.6 -2.7 2.4 -5.6 1.7 -6.8 c -0.6 -1 -2.4 -4 -0.6 -5.8 c 1.8 -1.8 4.6 -0.6 5.2 0.3 c 0.21 0.313 0.536 0.822 0.939 1.45 c 1.527 2.384 4.158 6.488 5.662 8.15 c 3.5 3.9 9 7.9 9.5 8.2 c 0.512 0.342 1.55 1.22 2.851 2.321 c 2.504 2.121 5.982 5.065 8.549 6.579 Z m 39.4 -210 c 1.5 4.2 2.4 8.2 2.8 11.8 c 0.3 3.8 0 7.3 -0.8 10.3 c -1 3.1 -2.8 5.9 -5.4 8.2 c -2.5 2.3 -5.9 4.2 -10.1 5.6 c -3.9 1.4 -7.6 2.1 -10.9 2.2 c -3.5 0.1 -6.7 -0.6 -9.5 -2 c -2.5 -1.4 -4.9 -3.4 -6.9 -6 c -0.1 -0.15 -0.2 -0.275 -0.3 -0.4 c -0.1 -0.125 -0.2 -0.25 -0.3 -0.4 c -2.1 -2.9 -3.9 -6.6 -5.5 -11.1 l -9.2 -26.1 l -0.6 -1.5 c -2 -4.4 -4.5 -5 -8.3 -4.3 c -4.1 0.8 -5.8 0.2 -6.7 -2.6 c -0.6 -2 1.8 -4.2 4.5 -4.9 c 0.535 -0.178 1.343 -0.436 2.36 -0.76 a 423.445 423.445 0 0 0 9.84 -3.24 c 4.107 -1.494 6.541 -2.653 8.885 -3.768 c 0.795 -0.379 1.579 -0.752 2.415 -1.132 c 3.3 -1.5 5.6 -0.2 6.3 1.5 c 0.7 1.7 -0.6 4.5 -2.8 5.6 l -0.338 0.168 c -2.182 1.078 -5.112 2.527 -4.162 6.232 c 0.3 1.3 0.8 2.8 1.4 4.6 l 8.9 25.5 c 0.8 2.4 1.9 4.6 3.2 6.6 c 1.3 1.9 2.7 3.4 4.3 4.6 c 1.5 1.1 3.2 1.9 5.1 2.2 c 1.8 0.3 3.8 0.1 6 -0.6 c 4.7 -1.7 7.8 -4.4 9.2 -8.1 c 1.4 -3.8 0.9 -9 -1.4 -15.7 c 0 0 -7.3 -20.1 -9.1 -25.2 c -1.8 -5.1 -5 -5 -7.4 -4.7 c -2.3 0.3 -5.3 -0.2 -6.1 -2.4 c -0.8 -2.2 0.2 -4.4 3.4 -5 c 1.443 -0.27 2.723 -0.358 4.144 -0.455 c 1.729 -0.119 3.666 -0.251 6.356 -0.745 c 4.8 -0.8 7.6 -1.4 10.7 -2.4 c 2.8 -0.9 5.3 0.1 5.6 2.7 c 0.3 2.5 -1.3 3.8 -3.4 4.6 l -0.372 0.133 c -2.226 0.795 -5.557 1.984 -4.328 5.767 c 1.3 4.1 8.5 25.2 8.5 25.2 Z m 144 30.7 c 1.4 2.2 1.9 4.7 2.1 7.2 c 0.1 2.5 -0.3 5.1 -1.4 7.8 c -0.3 0.7 -0.6 1.299 -0.899 1.899 h -0.001 c -1.1 1.9 -2.6 3.8 -4.6 5.6 c -3 2.7 -6 4.5 -9 5.3 c -2.9 0.8 -5.9 0.9 -8.8 0.2 c -2.8 -0.6 -5.6 -1.9 -8.3 -3.8 c -6.3 -4.3 -9.8 -4.3 -13 -1.4 c -2.6 2.4 -5.1 4.7 -5.1 4.7 c -1.5 1.3 -4.3 4.201 -2.6 7.401 c 0.8 1.7 1.9 4.5 2.1 6.6 c 0.1 2.1 -0.7 3.6 -1.7 4 c -2.5 1.1 -4.3 0 -5.8 -2.1 c -0.646 -0.952 -1.095 -1.8 -1.56 -2.677 c -0.904 -1.704 -1.866 -3.519 -4.44 -6.423 c -1.819 -2.054 -4.017 -3.832 -6.149 -5.558 c -1.501 -1.214 -2.97 -2.403 -4.251 -3.642 c -0.898 -0.87 -1.687 -1.696 -2.457 -2.503 c -1.887 -1.979 -3.66 -3.837 -6.643 -5.897 c -2.624 -1.77 -5.137 -2.72 -7.106 -3.465 c -1.257 -0.476 -2.293 -0.868 -2.994 -1.335 c -2.4 -1.5 -3.3 -3.3 -2 -5.5 c 1.191 -2.016 3.055 -1.597 5.821 -0.974 l 0.779 0.174 c 3.282 0.656 3.871 -1.313 4.585 -3.698 c 0.156 -0.522 0.318 -1.064 0.515 -1.602 c 0.555 -1.514 1.39 -4.556 2.416 -8.291 c 1.006 -3.666 2.196 -7.999 3.484 -12.21 c 1.4 -4.7 0.3 -4.9 -2.4 -1.2 c -5.5 7.4 -12.5 16.9 -12.5 16.9 c -1.5 1.9 -3 4.1 -4.5 6.4 c 0 0 -0.2 0.3 -0.5 0.8 c -5 7.2 -10.3 4.2 -11 -3.9 c -0.266 -3.55 -0.611 -7.847 -0.965 -12.256 c -0.444 -5.526 -0.901 -11.226 -1.235 -15.843 c -0.5 -6 -1.8 -5.9 -3.2 -1 a 849.013 849.013 0 0 1 -2.787 9.608 c -1.141 3.87 -2.077 7.049 -2.713 9.592 c -1.1 4.3 0.1 6.1 3.5 7.3 c 3.5 1.3 5.5 3.3 4.3 6 c -1.178 2.771 -5.044 1.99 -9.537 1.083 c -1.991 -0.402 -4.105 -0.83 -6.163 -0.983 c -1.531 -0.114 -3.172 -0.13 -4.797 -0.144 c -5.482 -0.05 -10.772 -0.099 -11.003 -3.956 c -0.241 -4.014 3.965 -4.29 7.185 -4.501 c 0.791 -0.052 1.523 -0.1 2.115 -0.2 c 3 -0.5 5.3 -2.8 6.5 -6.2 c 1.2 -3.5 9.7 -33.4 11.6 -40.2 c 1.8 -6.8 -6.3 -8.8 -7.7 -5.8 c -1.8 3.9 -6.6 0.9 -7.6 -3.6 c -0.8 -3.7 2.1 -6.3 4.1 -6.6 c 3.524 -0.556 6.934 0.379 10.868 1.457 c 2.428 0.666 5.055 1.386 8.032 1.844 c 4.841 0.745 8.718 1.374 11.442 1.816 c 1.665 0.27 2.899 0.47 3.658 0.584 c 3.6 0.5 4.9 2 4.5 4.3 c -0.376 2.162 -3.493 2.38 -4.944 2.481 l -0.256 0.019 c -3.6 0.3 -4.7 3.6 -4.3 9 c 0.329 5.273 0.789 11.503 1.208 17.17 c 0.216 2.93 0.422 5.71 0.592 8.13 c 0.4 4.9 2.1 6.1 4.8 2.4 c 4.4 -6 11.3 -15.4 16.4 -22.3 c 3.373 -4.626 2.102 -5.723 -0.68 -8.123 l -0.32 -0.277 c -2 -1.7 -3.2 -3 -2.3 -5.3 c 0.8 -2.3 4.3 -1.4 6.1 -0.3 c 0.523 0.31 1.008 0.602 1.479 0.885 c 2.408 1.447 4.42 2.656 9.021 4.915 l 1.601 0.788 c 4.601 2.266 6.925 3.41 9.899 4.312 c 3.3 1.1 4.7 3.2 3.6 5.5 s -3.2 2.3 -5.9 1.5 c -4.2 -1.3 -5.4 -0.8 -7.3 5.6 c -1.9 6.4 -10.8 36.8 -10.8 36.8 c -0.046 0.171 -0.098 0.36 -0.155 0.563 c -0.799 2.88 -2.428 8.754 0.655 11.837 c 4.1 4.1 9.7 2.3 13.4 -1.1 c 2.298 -2.056 10.01 -9.16 17.029 -15.627 a 5019.16 5019.16 0 0 1 11.171 -10.273 c 5.8 -5.4 0 -11 -2.9 -9.3 c -3.6 2.2 -5.9 -3 -4.2 -7.3 c 1.4 -3.5 5.2 -3.8 7.1 -3.1 c 3.213 1.246 5.695 4.641 8.574 8.58 c 1.511 2.068 3.132 4.285 5.026 6.42 c 2.307 2.6 4.667 4.85 6.843 6.923 c 3.013 2.87 5.673 5.406 7.357 8.077 Z m -9.8 7.2 c 0.6 -1 0.8 -1.7 0.9 -2.3 c 0.2 -1.6 -0.4 -3.4 -2.1 -5.5 c -0.05 -0.05 -0.1 -0.125 -0.15 -0.2 c -0.05 -0.075 -0.1 -0.15 -0.15 -0.2 c -0.1 -0.15 -0.225 -0.275 -0.35 -0.4 c -0.125 -0.125 -0.25 -0.25 -0.35 -0.4 c -1.7 -1.5 -4.2 -1 -6.3 0.9 c -0.903 0.824 -2.113 1.94 -3.444 3.168 c -2.061 1.902 -4.412 4.07 -6.356 5.832 c -2 1.9 -3 4.2 -2.1 5.9 c 0.8 0.8 1.6 1.4 2.3 1.9 c 0.4 0.2 0.8 0.4 1.1 0.7 c 1.1 0.6 2.2 1 3.2 1 c 1.3 0 2.5 -0.3 3.9 -1 c 1.5 -0.8 3.2 -2.1 5.1 -3.8 c 2.6 -2.3 4 -4.2 4.8 -5.6 Z m -121.6 230 c 2.5 0.5 3.1 3.8 2.4 7.5 c -0.8 4.1 -0.9 10.9 -0.9 13.8 c 0.4 3.3 -0.4 4.8 -2.8 5.2 c -2.159 0.332 -3.767 -0.991 -4.88 -1.908 c -0.227 -0.187 -0.433 -0.357 -0.62 -0.492 c -1.321 -0.979 -3.049 -0.569 -5.593 0.035 c -2.657 0.63 -6.204 1.471 -11.107 1.165 c -9.6 -0.6 -18.6 -4.6 -23.5 -11.3 c -4.8 -6.7 -6.9 -15.8 -6.1 -27.2 c 0.4 -6 1.6 -11.4 3.5 -15.9 c 1.9 -4.6 4.5 -8.4 7.6 -11.4 c 3.1 -3 6.8 -5.3 10.9 -6.6 c 4.1 -1.3 8.5 -1.8 13.1 -1.5 c 2.739 0.196 5.573 1.157 11.217 3.07 l 0.383 0.13 c 3.569 1.21 4.906 0.517 6.114 -0.109 c 0.788 -0.408 1.522 -0.789 2.786 -0.591 c 2.2 0.4 3.1 2.1 2.5 5 l -0.072 0.338 c -0.575 2.674 -1.124 5.227 -1.028 9.162 c 0.03 1.159 0.095 2.203 0.156 3.183 c 0.145 2.315 0.266 4.268 -0.156 6.517 c -0.5 2.7 -2.7 4.9 -6.5 4.2 c -4.5 -0.8 -7.3 -5.2 -3.7 -7.5 c 2.7 -1.8 1.9 -6.4 -1.9 -10.1 c -2.7 -2.6 -6.2 -4.1 -10.5 -4.4 c -3.4 -0.2 -6.3 0.4 -8.5 1.8 c -2.3 1.4 -4.2 3.5 -5.7 6 c -1.5 2.6 -2.6 5.6 -3.4 8.8 c -0.8 3.4 -1.3 6.7 -1.5 9.9 c -0.2 3.5 -0.1 7.1 0.3 10.7 c 0.4 3.5 1.3 6.7 2.5 9.5 c 1.2 2.7 2.8 5 4.9 6.8 c 2 1.8 4.6 2.8 7.7 3 c 2.6 0.2 7.6 0.2 11.1 -2.3 c 3.6 -2.5 5.3 -7.2 5.8 -9.8 c 0.6 -3.1 2.7 -5.3 5.5 -4.7 Z m 48.8 -170.3 c -0.2 3.1 -0.4 6.2 0 8.8 c 0.023 0.168 0.052 0.35 0.081 0.543 c 0.361 2.333 0.969 6.257 -4.481 6.257 c -5.8 0.1 -5.7 -3.4 -4.1 -4.8 c 2.2 -1.8 1.8 -4.5 0.2 -5.9 c -1.2 -1.2 -4.1 -1.3 -8.6 -1.3 c -8.4 0.1 -10.2 3.2 -10.1 8.4 c 0 0.965 0.024 2.07 0.048 3.213 a 177.8 177.8 0 0 1 0.052 3.687 c 0 3.5 1.2 6.1 4.4 6.1 c 3.2 0.1 4 -2.1 4.1 -2.8 c 0.075 -0.412 0.094 -0.95 0.115 -1.535 c 0.034 -0.978 0.073 -2.089 0.385 -2.965 c 0.4 -1.4 1.5 -2.7 3.7 -2.7 c 2.2 0.1 3.1 2.2 3 4.6 c -0.035 0.841 -0.131 1.695 -0.242 2.673 c -0.205 1.812 -0.458 4.05 -0.458 7.427 c 0 3.096 0.284 5.661 0.514 7.736 c 0.156 1.409 0.286 2.593 0.286 3.564 c 0 1.1 -0.8 3.2 -3.2 3.2 c -2.4 0 -3.4 -1.9 -3.7 -3.5 c -0.2 -1.8 -0.8 -6.3 -3.4 -6.4 c -3.1 -0.2 -5 0.3 -5 6.2 v 12.6 c -0.1 2.8 0.6 6.1 4.7 6.4 c 2.9 0.2 5.2 1.7 5.2 3.6 c 0 2.1 -1 3.8 -4.1 3.6 c -1.251 -0.085 -2.302 -0.158 -3.21 -0.221 c -4.459 -0.31 -5.452 -0.379 -9.69 -0.379 c -4.546 0 -8.895 0.396 -11.12 0.598 c -0.515 0.047 -0.916 0.083 -1.18 0.102 c -3.3 0.3 -5.8 -0.9 -5.6 -3.8 c 0.2 -1.9 2 -3.5 5.1 -3.5 c 3.1 0 6.1 -1.9 6.1 -7 c 0.1 -7.9 0 -33.8 -0.3 -42.5 c -0.3 -8.7 -5.4 -8.5 -6 -5 c -0.7 4.2 -6.2 2.6 -8.3 -1.5 c -1.8 -3.3 0.4 -6.4 2.2 -7.4 c 3.002 -1.626 7.919 -1.179 13.31 -0.69 c 3.23 0.294 6.631 0.602 9.89 0.49 c 3.807 -0.138 8.013 -0.275 11.925 -0.403 c 4.617 -0.151 8.823 -0.289 11.475 -0.397 c 5 -0.2 6.2 1.8 6 4.9 Z m 84.9 95.9 c 3.1 2.6 4.5 3.7 7 5.1 c 3.3 1.8 4.1 3.9 1.6 8 c -1.6 2.8 -10.7 15.2 -15.1 20.5 c -4.4 5.3 -15.2 18.4 -17.2 21.1 c -1.8 2.5 -5.1 1.7 -6.2 0.5 c -1.6 -1.7 -0.9 -3.3 0.7 -5.9 c 2.1 -3.3 2.6 -5.1 -1.1 -8.2 c -3.6 -3.1 -30 -26.6 -30 -26.6 s -2.1 -1.7 -2.8 -2.3 c -4.1 -2.8 -6.6 -1.1 -10.5 1.8 c -3.9 2.9 -4.6 4.5 -5.3 8.3 c -0.8 4.1 -2 13.2 -2.8 19.3 c -0.762 5.624 1.019 6.705 4.305 8.699 l 0.495 0.301 c 3.7 2.2 17.5 10.3 21.3 12.2 c 3.7 1.9 7.7 3.5 9.7 1.9 c 2 -1.6 4.2 -1.3 5.1 -0.2 c 0.9 1.1 1.5 2.6 -1.3 4.6 c -1.629 1.164 -3.63 2.158 -5.925 3.298 c -1.65 0.82 -3.451 1.715 -5.375 2.802 c -2.056 1.188 -4.029 2.523 -5.823 3.736 c -2.132 1.442 -4.01 2.712 -5.477 3.364 c -2.7 1.2 -4.1 1 -4.9 -0.3 c -0.9 -1.5 -0.1 -3.2 2.4 -4.9 c 3.064 -2.106 0.445 -3.846 -2.68 -5.921 l -0.42 -0.279 c -1.707 -1.138 -3.388 -2.223 -4.793 -3.13 c -1.31 -0.845 -2.379 -1.536 -3.007 -1.97 c -1.3 -0.9 -2.8 -1.8 -4.2 -2.6 a 3.132 3.132 0 0 0 -0.425 -0.222 a 3.585 3.585 0 0 1 -0.675 -0.378 l -1.8 -0.9 c -3.9 -1.4 -5.2 1.8 -3.7 5.8 c 0 0 1 3.3 3.3 9.8 c 2.021 5.621 3.501 5.302 6.135 4.735 c 0.365 -0.079 0.752 -0.162 1.165 -0.235 c 1.7 -0.3 4 -0.6 4.7 1.5 c 0.6 2.1 0 3.5 -2.9 4.2 l -0.183 0.044 c -2.792 0.674 -4.587 1.107 -12.417 3.456 c -1.955 0.626 -3.834 1.313 -5.618 1.965 c -2.779 1.016 -5.328 1.948 -7.582 2.435 c -2.1 0.4 -3.4 -0.3 -4 -2.1 c -0.5 -1.8 0.7 -3.1 3.6 -4.4 c 4.2 -1.8 4.7 -2.6 2.9 -8.4 c -1.9 -5.7 -12.3 -35.8 -14.1 -41 c -1.786 -5.161 -3.572 -5.003 -6.922 -4.707 l -0.078 0.007 c -3.4 0.2 -4.8 -0.9 -5 -3.5 c -0.2 -2.6 2.7 -3.4 3.7 -3.6 c 0.32 -0.056 0.673 -0.115 1.058 -0.179 c 2.388 -0.401 5.967 -1.001 9.842 -2.121 c 4.5 -1.3 7.2 -2.4 10.1 -3.8 c 2.9 -1.3 4.3 0.4 4.8 2.3 c 0.6 1.9 -0.7 3.2 -2.4 4.1 c -0.228 0.121 -0.467 0.233 -0.706 0.345 c -1.548 0.724 -3.133 1.465 -2.094 4.755 c 0.999 3.162 3.036 8.61 4.441 12.366 c 0.284 0.758 0.541 1.447 0.759 2.034 c 1.6 4.3 3.4 3.7 4.7 -1.9 c 0.8 -3.4 2.8 -13.3 3.6 -19.2 c 0.3 -2.6 -0.4 -3.7 -2.8 -2.7 c -2.8 1.2 -4 -0.7 -4.5 -1.9 c -0.5 -1.3 0 -3.1 2.2 -4.1 c 0.525 -0.249 1.21 -0.535 1.997 -0.865 c 2.06 -0.862 4.815 -2.015 7.203 -3.535 c 2.736 -1.741 6.915 -5.75 10.429 -9.121 c 0.725 -0.695 1.422 -1.364 2.071 -1.979 c 3.8 -3.7 6.8 -6.8 10.1 -11 c 1.708 -2.174 3.015 -4.642 4.293 -7.059 c 1.192 -2.252 2.36 -4.459 3.807 -6.341 c 3 -4 5.3 -3.6 7.6 -1.5 s 4.5 4.1 6.8 5.5 c 0.163 0.103 0.345 0.212 0.538 0.328 c 2.058 1.234 5.445 3.267 2.062 7.472 c -3.7 4.5 -6.4 2.2 -6.4 0.1 c 0 -2.8 -2.3 -4.1 -4.4 -3.8 c -1.7 0.2 -3.7 2.3 -6.5 5.8 c -5.3 6.6 -2.3 10 1.8 13.3 c 0.984 0.799 2.535 1.977 4.002 3.09 a 299.31 299.31 0 0 1 2.498 1.91 c 2.7 2.1 5.5 2.9 7.5 0.4 s 0.8 -4.5 0.4 -5 c -0.257 -0.294 -0.635 -0.642 -1.051 -1.024 c -0.716 -0.658 -1.542 -1.417 -2.049 -2.176 c -0.7 -1.2 -1.1 -2.9 0.3 -4.6 c 1.4 -1.7 3.6 -1 5.4 0.6 c 0.606 0.534 1.199 1.144 1.892 1.858 c 1.252 1.29 2.833 2.917 5.408 5.042 c 2.487 2.052 4.704 3.524 6.481 4.704 c 1.082 0.718 2.001 1.329 2.719 1.896 c 0.9 0.8 2 2.7 0.5 4.6 c -1.6 1.9 -3.7 1.5 -5.1 0.7 c -1.5 -1 -5.4 -3.3 -7.1 -1.4 c -2 2.3 -2.9 4 1.7 7.8 c 3.1 2.6 6.2 5 8.9 6.7 c 3 1.8 7.1 1.5 11.1 -3.8 s 5.5 -11 5.3 -13.2 c -0.3 -2.9 -3.3 -6.7 -4.7 -8.1 c -0.199 -0.1 -0.399 -0.3 -0.599 -0.5 h -0.001 c -1 -0.7 -2.1 -1 -3.2 -0.6 c -4 1.3 -5.7 -3.7 -3.4 -7.7 c 1.9 -3.4 5 -3.7 7.4 -2.4 c 1.964 1.122 3.386 2.44 5.095 4.025 c 0.729 0.675 1.509 1.398 2.405 2.175 Z m 18.8 -41.5 c 0.8 -3.5 3.3 -4.2 4.9 -3.8 c 1.6 0.4 3 2.2 2.7 4.3 c -0.083 0.623 -0.459 1.903 -0.922 3.473 c -0.65 2.208 -1.468 4.989 -1.878 7.327 c -0.7 4 -1.1 7 -1.4 10 c -0.3 3 -2.4 4.3 -4.5 3.9 c -2 -0.4 -3.1 -2 -3.2 -4.3 c -0.03 -0.352 -0.03 -0.734 -0.031 -1.134 c 0 -2.214 -0.002 -4.965 -5.169 -6.066 c -4.756 -1.014 -27.991 -5.371 -39.232 -7.478 c -3.176 -0.596 -5.395 -1.012 -5.968 -1.122 c -2.6 -0.5 -3.2 1.7 -0.8 3.1 c 3.7 2.2 0.7 7 -3.8 7.8 c -3.8 0.7 -6.4 -1.6 -6.9 -3.6 c -0.669 -2.801 0.404 -5.565 1.594 -8.631 c 0.764 -1.968 1.576 -4.062 2.006 -6.369 c 1.013 -4.892 1.242 -8.076 1.409 -10.393 c 0.031 -0.431 0.06 -0.831 0.091 -1.207 c 0.1 -2.5 1.1 -4.8 3.4 -4.5 c 2.3 0.3 3 2.6 3 4.6 c 0 1.8 1 3.2 4.6 1.2 c 6.3 -3.4 26.4 -14.5 29.4 -16.3 c 3 -1.8 4 -4.4 -1.2 -5 l -3.317 -0.385 c -6.829 -0.795 -18.733 -2.18 -22.583 -2.515 c -4.5 -0.5 -5.9 1.2 -6.5 4.8 c -0.6 3.6 -2.3 5.9 -5.1 5.3 c -2.948 -0.617 -2.887 -4.479 -2.816 -9.006 c 0.033 -2.075 0.068 -4.289 -0.184 -6.394 c -0.175 -1.471 -0.452 -3.019 -0.726 -4.553 c -0.976 -5.454 -1.92 -10.732 1.826 -11.747 c 3.816 -1.034 4.852 2.926 5.668 6.05 c 0.211 0.805 0.407 1.555 0.632 2.15 c 1.1 2.8 2.4 4.7 7.3 5.2 s 33.3 3.3 42 4.1 c 8.7 0.8 7.4 -6.6 3.9 -6.7 c -4.2 -0.1 -3.4 -5.7 0.3 -8.4 c 3.1 -2.2 6.5 -0.5 7.7 1.1 c 2.415 3.22 2.367 7.35 2.324 11.019 c -0.016 1.345 -0.031 2.628 0.076 3.781 c 0.065 0.553 0.151 1.119 0.238 1.694 c 0.59 3.895 1.239 8.182 -4.338 11.406 c -5.4 3.1 -38.6 21.6 -41.7 23.3 c -4.5 2.4 -2.2 3.2 0.5 3.7 c 1.507 0.269 7.476 1.349 13.446 2.43 c 5.122 0.927 10.246 1.854 12.554 2.27 c 4.9 0.9 9.5 1.2 10.7 -4.4 Z m -291.4 2.4 c 0.2 2.6 -2.7 4.3 -6.5 4.8 c -4.2 0.6 -11.5 3.3 -14.1 4.6 c -3.1 1.6 -4.9 1.2 -6 -1 c -0.979 -1.958 -0.16 -4.05 0.392 -5.46 c 0.124 -0.318 0.235 -0.601 0.308 -0.84 c 1.22 -3.272 -0.112 -6.728 -1.83 -11.187 c -1.382 -3.583 -3.012 -7.812 -3.77 -13.113 c -1.3 -10 0.3 -21.2 6.2 -27.6 c 5.8 -6.3 14.6 -10.1 26 -11.4 c 5.9 -0.7 11.4 -0.4 16.1 0.7 c 4.8 1.2 8.9 3 12.3 5.6 c 3.4 2.6 6.1 5.8 8.1 9.6 s 3.2 8 3.7 12.6 c 0.295 2.747 -0.085 5.686 -0.855 11.651 l -0.044 0.349 c -0.484 3.689 0.385 4.854 1.17 5.907 c 0.513 0.688 0.99 1.328 1.03 2.593 c 0 2.1 -1.5 3.4 -4.2 3.4 c -0.428 0.015 -0.85 0.026 -1.269 0.036 c -2.326 0.059 -4.612 0.117 -7.831 0.964 c -0.957 0.259 -1.827 0.517 -2.645 0.76 c -2.343 0.697 -4.257 1.266 -6.555 1.34 c -2.6 0.1 -5.1 -1.7 -5.2 -5.6 c -0.1 -4.7 3.7 -8.4 6.5 -5.3 c 2.2 2.4 6.4 0.5 9.2 -3.9 c 2 -3.1 2.8 -6.9 2.3 -11.2 c -0.4 -3.4 -1.4 -6.1 -3.2 -8 c -1.9 -2.1 -4.1 -3.6 -6.8 -4.6 c -2.8 -1.1 -5.9 -1.7 -9.1 -1.8 c -3.4 -0.1 -6.7 0 -9.9 0.4 c -3.5 0.4 -6.6 1.2 -10 2.3 c -3.4 1.1 -6.4 2.6 -9 4.4 c -2.5 1.7 -4.5 3.9 -5.9 6.4 c -2 3.4 -2.4 9.1 -1.7 13.9 c 0.7 4.8 2.8 9.7 6.3 12.4 c 3.4 2.7 8.1 2.9 10.7 2.5 c 3.1 -0.4 5.8 0.9 6.1 3.8 Z" fill="#ffffff"/>
</svg>